<?xml version="1.0" encoding="UTF-8" standalone="no"?>
<svg
   xmlns:dc="http://purl.org/dc/elements/1.1/"
   xmlns:cc="http://creativecommons.org/ns#"
   xmlns:rdf="http://www.w3.org/1999/02/22-rdf-syntax-ns#"
   xmlns:svg="http://www.w3.org/2000/svg"
   xmlns="http://www.w3.org/2000/svg"
   viewBox="0 0 793.70667 1122.52"
   height="1122.52"
   width="793.70667"
   xml:space="preserve"
   id="svg2"
   version="1.1"><metadata
     id="metadata8"><rdf:RDF><cc:Work
         rdf:about=""><dc:format>image/svg+xml</dc:format><dc:type
           rdf:resource="http://purl.org/dc/dcmitype/StillImage" /></cc:Work></rdf:RDF></metadata><defs
     id="defs6"><clipPath
       id="clipPath18"
       clipPathUnits="userSpaceOnUse"><path
         id="path16"
         d="M 0,841.89 H 595.28 V 0 H 0 Z" /></clipPath></defs><g
     transform="matrix(1.3333333,0,0,-1.3333333,0,1122.52)"
     id="g10"><g
       id="g12"><g
         clip-path="url(#clipPath18)"
         id="g14"><g
           transform="translate(173.8687,562.7168)"
           id="g20"><path
             id="path22"
             style="fill:#ffffff;fill-opacity:1;fill-rule:evenodd;stroke:none"
             d="m 0,0 h 246.293 c 10.223,0 18.585,-8.363 18.585,-18.585 v -246.296 c 0,-10.222 -8.362,-18.585 -18.585,-18.585 H 0 c -10.222,0 -18.585,8.363 -18.585,18.585 V -18.585 C -18.585,-8.363 -10.222,0 0,0" /></g><g
           transform="translate(173.8687,562.7168)"
           id="g24"><path
             id="path26"
             style="fill:none;stroke:#000000;stroke-width:0.56699997;stroke-linecap:butt;stroke-linejoin:miter;stroke-miterlimit:22.9260006;stroke-dasharray:none;stroke-opacity:1"
             d="m 0,0 h 246.293 c 10.223,0 18.585,-8.363 18.585,-18.585 v -246.296 c 0,-10.222 -8.362,-18.585 -18.585,-18.585 H 0 c -10.222,0 -18.585,8.363 -18.585,18.585 V -18.585 C -18.585,-8.363 -10.222,0 0,0 Z" /></g><g
           transform="translate(320.7881,494.415)"
           id="g28"><path
             id="path30"
             style="fill:#0099e2;fill-opacity:1;fill-rule:evenodd;stroke:none"
             d="M 0,0 C 15.164,0 31.904,-17.699 31.904,-36.538 31.904,-55.376 15.163,-73.075 0,-73.075 H -50.97 V -36.538 0 Z m -0.476,29.953 c 26.166,0 62.382,-24.575 62.382,-66.49 0,-41.916 -36.218,-66.491 -62.382,-66.491 h -50.509 v -75.203 h -30.054 v 75.203 14.038 52.453 66.49 z M -146.851,60.334 H 99.306 c 5.879,0 10.686,-4.808 10.686,-10.687 v -246.158 c 0,-5.878 -4.807,-10.686 -10.686,-10.686 h -246.157 c -5.878,0 -10.686,4.808 -10.686,10.686 V 49.647 c 0,5.879 4.808,10.687 10.686,10.687" /></g></g></g></g></svg>