<?xml version="1.0" standalone="no"?>
<!DOCTYPE svg PUBLIC "-//W3C//DTD SVG 20010904//EN"
 "http://www.w3.org/TR/2001/REC-SVG-20010904/DTD/svg10.dtd">
<svg version="1.0" xmlns="http://www.w3.org/2000/svg"
 width="1000.000000pt" height="1000.000000pt" viewBox="0 0 1000.000000 1000.000000"
 preserveAspectRatio="xMidYMid meet">

<g transform="translate(0.000000,1000.000000) scale(0.100000,-0.100000)"
fill="#000000" stroke="none">
<path d="M9428 9983 c7 -3 16 -2 19 1 4 3 -2 6 -13 5 -11 0 -14 -3 -6 -6z"/>
<path d="M575 9700 c-109 -28 -199 -99 -247 -198 l-33 -67 0 -4435 0 -4435 27
-57 c49 -105 149 -182 268 -207 42 -9 1115 -11 4445 -9 l4390 3 58 23 c81 33
166 114 203 194 l29 63 0 4425 0 4425 -23 50 c-53 114 -120 177 -229 214 l-62
21 -4398 -1 c-2419 -1 -4411 -5 -4428 -9z m5473 -1065 c461 -60 937 -308 1307
-679 444 -445 679 -1019 678 -1656 0 -378 -76 -706 -238 -1035 -126 -256 -263
-443 -477 -650 -335 -326 -716 -532 -1168 -632 l-125 -27 -987 -3 -988 -4 0
-1324 0 -1325 -537 2 -538 3 -3 3673 -2 3672 1483 0 c1247 0 1501 -2 1595 -15z"/>
<path d="M4050 6300 l0 -1281 958 4 c949 3 958 3 1033 25 508 147 920 709 919
1254 -1 321 -140 654 -380 911 -142 151 -307 261 -498 330 l-87 32 -972 3
-973 2 0 -1280z"/>
<path d="M593 13 c9 -2 23 -2 30 0 6 3 -1 5 -18 5 -16 0 -22 -2 -12 -5z"/>
<path d="M9388 13 c12 -2 30 -2 40 0 9 3 -1 5 -23 4 -22 0 -30 -2 -17 -4z"/>
</g>
</svg>
