<svg xmlns="http://www.w3.org/2000/svg" width="100" height="86" fill="none" fill-rule="evenodd"><path stroke="#fff" stroke-width="9" d="M54.225 9.847l35.42 61.28c1.447 2.503.59 5.704-1.912 7.15-.796.46-1.7.703-2.62.703H14.272c-2.89 0-5.234-2.343-5.234-5.234 0-.92.242-1.823.703-2.62l35.42-61.28c1.447-2.503 4.648-3.36 7.15-1.912.794.46 1.453 1.118 1.912 1.912z" fill="#fff"/><path stroke="#cb2429" stroke-width="7" d="M53.36 10.348l35.42 61.28c1.17 2.024.478 4.614-1.547 5.784-.644.372-1.375.568-2.12.568H14.272c-2.338 0-4.234-1.896-4.234-4.234 0-.744.196-1.475.568-2.12l35.42-61.28c1.17-2.024 3.76-2.717 5.784-1.547.642.37 1.176.905 1.547 1.547z"/><path d="M42.326 68.997c-1.043 0-1.967-.18-2.187-.28v-4.314l.144.03a8.2 8.2 0 0 0 1.561.131c1.926 0 3.27-.662 4.334-2.448L36.467 39.8h5.478l6.863 17.057h.26L55.65 39.8h5.438l-9.03 21.036c-2.55 5.81-5.016 8.16-9.733 8.16z" fill="#181818" fill-rule="nonzero"/></svg>