<svg xmlns="http://www.w3.org/2000/svg" width="100" height="86" fill="none" fill-rule="evenodd"><path fill="#ffcd00" d="M10 3h80v80H10z"/><path d="M55.867 37.667v12.267a3.2 3.2 0 0 1-3.018 3.195l-.182.005H40.943c.28 8 6.855 14.4 14.924 14.4 8.247 0 14.933-6.686 14.933-14.933s-6.686-14.933-14.933-14.933zM41.467 35v6.4H30.8a3.2 3.2 0 0 1 0-6.4h10.667zm8-20.8a6.4 6.4 0 1 1 0 12.8 6.4 6.4 0 1 1 0-12.8zm6.4 19.2c10.604 0 19.2 8.596 19.2 19.2s-8.596 19.2-19.2 19.2c-10.425 0-18.9-8.31-19.193-18.667H34v11.734a3.2 3.2 0 0 1-6.4 0V49.933a3.2 3.2 0 0 1 3.2-3.2h12.266l.001-14.933a3.2 3.2 0 0 1 3.2-3.2h6.4a3.2 3.2 0 0 1 3.2 3.2z" fill="#181818" fill-rule="nonzero"/><rect stroke="#181818" stroke-width="1.067" x="12.133" y="5.133" width="75.733" height="75.733" rx="2.133"/></svg>