<svg xmlns="http://www.w3.org/2000/svg" width="100" height="86" fill-rule="evenodd"><path stroke="#d9251c" stroke-width="8" fill="#fff500" d="M14 7h72v72H14z"/><path d="M68.4 29.72a2.08 2.08 0 1 1 0 4.16H57.772L62.665 41a2.24 2.24 0 0 1-.562 3.102L58.678 46.5l-.638-.93.6.938-6.56 4-.135 11.36c-.014 1.153-.952 2.08-2.105 2.08a2.08 2.08 0 0 1-2.08-2.08v-13.6l8.224-5.695-5.54-8.073a2.24 2.24 0 0 1 .562-3.102l1.573-1.1a2.23 2.23 0 0 1 1.26-.405V29.7H68.4zm-6.72 15.36l3.84 5.6 6.643-4.638a2.12 2.12 0 0 1 2.949.524l.065.1.046.074a2.24 2.24 0 0 1-.653 3.035l-8.266 5.576a2.56 2.56 0 0 1-3.554-.691l-.02-.03-4.57-7 3.52-2.56zm-11.52-9.92l2.72 4-4.052 6.92-7.898-4.56a2.08 2.08 0 1 1 2.08-3.603l4.213 2.432 2.937-5.2zm.32-13.6c2.12 0 3.2 1.597 3.2 4.16s-2.04 5.6-4.16 5.6-3.84-2.557-3.84-5.12 2.68-4.64 4.8-4.64zm-7.042 7.4a1.92 1.92 0 0 1 .611 2.646l-5.473 8.757a2.25 2.25 0 0 1 .275.38l3.52 6.097a2.24 2.24 0 0 1-.82 3.06l-.58.335-5.53 3.476-5.768 9.122c-.5.777-1.52 1.008-2.295.517-.104-.066-.2-.143-.287-.23l-.216-.216a2.24 2.24 0 0 1-.32-2.764l6.166-9.95 3.144-1.82-2.555-4.427c-.33-.57-.38-1.228-.2-1.8l-.126-.08 7.8-12.483a1.92 1.92 0 0 1 2.646-.611zM41.68 50.84l2.4 4.64 3.04.16v4.16l-5.76-.32-3.36-6.4 3.68-2.24zm-14.7-8.714l2.2 3.198 3.07-2.004 1.76 3.2-2.798 1.76-2.88 1.92-4.32-5.76c-.662-.933-.86-2.2.075-2.835s2.23-.413 2.892.52zm5.75-11.446c2.12 0 2.72 1.117 2.72 3.68s-2.2 5.28-4.32 5.28-3.2-1.597-3.2-4.16 2.68-4.8 4.8-4.8z" fill="#181818"/></svg>