<svg xmlns="http://www.w3.org/2000/svg" width="100" height="86" fill-rule="evenodd"><circle fill="#fff" cx="50" cy="43" r="40"/><g fill-rule="nonzero"><path d="M50 5C29.013 5 12 22.013 12 43s17.013 38 38 38 38-17.013 38-38S70.987 5 50 5zm0 8c16.57 0 30 13.43 30 30S66.57 73 50 73 20 59.57 20 43s13.43-30 30-30z" fill="#e31e24"/><path d="M44.267 27.74v4.643h-.332c-1.34 0-2.543.172-3.61.517s-1.987.836-2.76 1.473a7.41 7.41 0 0 0-1.873 2.322c-.475.9-.8 1.93-.946 3.063.69-.702 1.512-1.265 2.468-1.687s2.045-.634 3.268-.634c1.34 0 2.513.257 3.52.77s1.85 1.2 2.526 2.087 1.184 1.9 1.522 3.063.507 2.403.507 3.716c0 1.38-.224 2.663-.673 3.853s-1.09 2.22-1.922 3.092-1.837 1.557-3.014 2.058-2.494.75-3.95.75c-1.522 0-2.9-.276-4.136-.83s-2.286-1.327-3.15-2.322-1.535-2.185-2.01-3.57-.712-2.9-.712-4.575v-2.185c0-2.29.325-4.39.975-6.3s1.593-3.557 2.83-4.936 2.75-2.452 4.545-3.22 3.837-1.15 6.126-1.15h.8zm-5.5 14.222a4.61 4.61 0 0 0-1.405.205c-.43.137-.82.325-1.17.566s-.66.52-.927.84-.478.654-.634 1.005v1.697c0 1 .104 1.88.312 2.634s.497 1.382.868 1.883.82.875 1.346 1.122 1.102.37 1.727.37c.61 0 1.167-.13 1.668-.4s.927-.618 1.278-1.073.624-.998.82-1.63.293-1.317.293-2.058a7.23 7.23 0 0 0-.283-2.078c-.19-.63-.465-1.177-.83-1.64s-.803-.82-1.317-1.073-1.096-.38-1.746-.38zm22.6-14.32c1.43 0 2.734.23 3.91.693a7.63 7.63 0 0 1 3.034 2.165c.845.982 1.502 2.237 1.97 3.765s.702 3.36.702 5.492v4.936c0 2.133-.23 3.963-.693 5.492s-1.112 2.786-1.95 3.775-1.847 1.714-3.024 2.175-2.48.693-3.91.693-2.734-.23-3.91-.693a7.59 7.59 0 0 1-3.034-2.175c-.845-.988-1.502-2.247-1.97-3.775s-.702-3.36-.702-5.492v-4.936c0-2.133.23-3.963.693-5.492s1.115-2.783 1.96-3.765 1.853-1.704 3.024-2.165 2.47-.693 3.902-.693zm0 4.565c-.624 0-1.18.117-1.668.35s-.9.615-1.24 1.14-.595 1.22-.77 2.078-.263 1.918-.263 3.18v6.477c0 1.275.09 2.348.273 3.22s.442 1.577.78 2.117.754.927 1.25 1.16 1.053.35 1.678.35 1.184-.117 1.678-.35.907-.62 1.24-1.16.585-1.245.76-2.117.263-1.944.263-3.22v-6.477c0-1.262-.088-2.322-.263-3.18s-.436-1.55-.78-2.078-.764-.907-1.258-1.14-1.053-.35-1.678-.35z" fill="#181818"/></g></svg>