<?xml version="1.0" encoding="UTF-8"?>
<svg id="_Слой_1" data-name=" Слой 1" xmlns="http://www.w3.org/2000/svg" width="97" height="97" viewBox="0 0 97 97">
  <defs>
    <style>
      .cls-1, .cls-2, .cls-3, .cls-4 {
        fill: none;
      }

      .cls-5 {
        fill: #fff;
      }

      .cls-6 {
        fill: #fdef50;
      }

      .cls-2 {
        stroke-dasharray: 0 0 2 2;
      }

      .cls-2, .cls-3 {
        stroke: #050505;
      }

      .cls-2, .cls-3, .cls-4 {
        stroke-miterlimit: 10;
        stroke-width: .5px;
      }

      .cls-4 {
        stroke: #000;
      }
    </style>
  </defs>
  <g>
    <rect class="cls-5" x="18.72" y="18.52" width="59.35" height="59.35" rx="1" ry="1" transform="translate(-19.9 48.34) rotate(-45)"/>
    <rect class="cls-2" x="18.72" y="18.52" width="59.35" height="59.35" rx="1" ry="1" transform="translate(-19.9 48.34) rotate(-45)"/>
  </g>
  <path class="cls-6" d="m48.02,9.69c.26-.26.69-.26.95,0l19.3,19.02,18.64,18.36c.42.42.12,1.12-.48,1.12h-37.95s-37.95,0-37.95,0c-.6,0-.9-.71-.48-1.12l18.64-18.36,19.31-19.01Z"/>
  <path class="cls-1" d="m0,0h97v97H0V0Z"/>
  <rect class="cls-3" x="20.86" y="20.48" width="55.22" height="55.22" rx="1" ry="1" transform="translate(-19.81 48.36) rotate(-45)"/>
  <path d="m48.47,32.37l-4.96,12.45s0,0,.01,0c3.42,1.35,7.07,1.19,10.22-.16l-5.27-12.3Z"/>
  <path d="m61.9,32.39s0-.01,0-.02c0-4.63-2.35-8.72-5.93-11.14l-7.46,11.14-7.59-11.05.02-.1c-3.58,2.42-5.93,6.51-5.93,11.15,0,0,0,.01,0,.02h26.89Z"/>
  <path class="cls-6" d="m48.45,37.42c-2.78,0-5.04-2.26-5.04-5.04s2.26-5.04,5.04-5.04,5.04,2.26,5.04,5.04-2.26,5.04-5.04,5.04Z"/>
  <path d="m48.45,36.47c-2.26,0-4.1-1.84-4.1-4.1s1.84-4.1,4.1-4.1,4.1,1.84,4.1,4.1-1.84,4.1-4.1,4.1Z"/>
  <line class="cls-4" x1="10.13" y1="48.1" x2="86.82" y2="48.1"/>
  <g>
    <path d="m30.05,57.35h-.93l-1.71-2.15h-.82v2.15h-.72v-5.4h1.39c.31,0,.57.02.78.05.21.03.41.11.6.24.19.12.34.28.45.47.11.19.17.43.17.71,0,.4-.1.73-.3.99-.2.27-.47.46-.82.59l1.92,2.35Zm-1.55-3.88c0-.16-.03-.3-.08-.42s-.14-.22-.26-.3c-.1-.07-.22-.11-.36-.14s-.3-.04-.5-.04h-.71v2.04h.63c.21,0,.39-.02.55-.05s.3-.11.42-.22c.1-.1.18-.22.23-.36.05-.14.07-.3.07-.49Z"/>
    <path d="m29.89,57.35l1.82-5.4h.88l1.82,5.4h-.76l-.49-1.51h-2.06l-.49,1.51h-.73Zm3.08-2.12l-.83-2.54-.83,2.54h1.66Z"/>
    <path d="m39.18,54.65c0,.49-.1.94-.3,1.33-.2.4-.47.71-.8.93-.27.17-.55.29-.83.34-.28.06-.64.09-1.08.09h-1.24v-5.4h1.23c.51,0,.91.04,1.19.11.29.08.53.18.74.31.35.23.62.53.81.91.19.38.29.83.29,1.36Zm-.75-.01c0-.42-.07-.77-.21-1.06-.14-.29-.34-.52-.61-.69-.19-.12-.4-.2-.61-.25s-.49-.08-.81-.08h-.55v4.16h.55c.32,0,.6-.03.84-.08.24-.05.46-.15.66-.28.25-.17.44-.39.56-.68s.19-.63.19-1.05Z"/>
    <path d="m41.85,57.35h-2.09v-.55h.69v-4.3h-.69v-.55h2.09v.55h-.69v4.3h.69v.55Z"/>
    <path d="m46.55,52.57c.21.24.36.53.48.88.11.35.17.75.17,1.2s-.05.83-.17,1.18c-.11.35-.27.65-.48.89-.22.25-.48.44-.77.56-.29.12-.62.18-.97.18s-.69-.06-.99-.18-.54-.31-.75-.55c-.21-.24-.37-.53-.48-.88s-.17-.75-.17-1.19.06-.85.17-1.2c.11-.34.27-.64.48-.88.21-.24.46-.42.75-.55.29-.12.62-.19.98-.19s.7.06.99.19c.3.13.54.31.75.54Zm-.1,2.08c0-.36-.04-.67-.12-.95-.08-.28-.19-.5-.33-.68-.14-.19-.31-.33-.52-.42s-.43-.14-.68-.14-.49.05-.68.14c-.19.09-.37.23-.52.42-.14.18-.25.41-.33.69-.08.28-.11.59-.11.94,0,.71.15,1.25.45,1.63.3.38.7.56,1.2.56s.9-.19,1.19-.56.44-.92.44-1.63Z"/>
    <path d="m47.4,57.35l1.82-5.4h.88l1.82,5.4h-.76l-.49-1.51h-2.06l-.49,1.51h-.72Zm3.08-2.12l-.83-2.54-.83,2.54h1.66Z"/>
    <path d="m54.55,57.44c-.35,0-.68-.06-.97-.18s-.55-.3-.77-.53c-.22-.23-.38-.53-.5-.88-.12-.35-.18-.75-.18-1.21s.06-.85.17-1.18c.11-.34.28-.63.5-.88.22-.24.47-.43.76-.55.3-.13.63-.19.99-.19.18,0,.35.01.51.04.16.03.3.06.44.1.12.04.24.08.36.14.12.05.24.11.36.18v.87h-.06c-.06-.06-.14-.13-.24-.21-.1-.08-.22-.16-.36-.24-.14-.07-.29-.14-.45-.18-.16-.05-.35-.07-.56-.07-.23,0-.45.05-.65.14s-.39.23-.54.42c-.15.18-.27.42-.36.69-.08.28-.13.59-.13.94,0,.37.04.69.13.95.09.27.21.49.37.68.15.18.33.31.53.4.2.09.42.14.65.14.21,0,.4-.02.58-.08.18-.05.33-.11.47-.19.13-.07.25-.15.34-.23s.17-.15.23-.2h.05v.86c-.12.06-.23.11-.34.16-.1.05-.23.1-.38.15-.16.05-.3.09-.44.12-.13.03-.31.04-.52.04Z"/>
    <path d="m58.15,57.35v-4.76h-1.81v-.64h4.34v.64h-1.81v4.76h-.72Z"/>
    <path d="m63.11,57.35h-2.09v-.55h.69v-4.3h-.69v-.55h2.09v.55h-.69v4.3h.69v.55Z"/>
    <path d="m67.91,51.95l-1.86,5.4h-.78l-1.86-5.4h.77l1.49,4.48,1.49-4.48h.73Z"/>
    <path d="m68.43,57.35v-5.4h3.38v.64h-2.66v1.48h2.48v.64h-2.48v2.01h2.66v.64h-3.38Z"/>
  </g>
  <path d="m50.77,76.33l-2.48,4.66h-1.62l2.6-4.72h-2.77v-1.1h4.28v1.16Z"/>
</svg>